<?xml version="1.0" encoding="utf-8"?>
<!-- Generator: Adobe Illustrator 16.0.0, SVG Export Plug-In . SVG Version: 6.00 Build 0)  -->
<!DOCTYPE svg PUBLIC "-//W3C//DTD SVG 1.1//EN" "http://www.w3.org/Graphics/SVG/1.1/DTD/svg11.dtd">
<svg version="1.1" id="Layer_1" xmlns="http://www.w3.org/2000/svg" xmlns:xlink="http://www.w3.org/1999/xlink" x="0px" y="0px"
	 width="935.433px" height="935.433px" viewBox="0 0 935.433 935.433" enable-background="new 0 0 935.433 935.433"
	 xml:space="preserve">
<path fill-rule="evenodd" clip-rule="evenodd" fill="#BFBFBF" d="M682.49,543.94l-0.438-0.74L682.49,543.94L682.49,543.94z
	 M228.894,560.581l-12.674-35.213l99.321-0.004l11.29,35.262L228.894,560.581L228.894,560.581z M302.64,485.788l-101.096-0.115
	l-12.662-34.818l102.57-0.059L302.64,485.788L302.64,485.788z M192.301,499.827L169.483,436.7h117.509
	c-0.244-2.926-2.419-6.199-2.662-9.127c-11.95,0-22.645,0.381-34.606,0.381c-16.053,0-14.258,1.148-15.775-3.619l-3.233-8.938
	c-3.509-7.063-6.878-12.127-13.196-17.227c-9.182-7.408-22.477-13.57-35.106-13.57c-10.918,0-18.356,1.779-26.243,5.701
	c-2.748,1.367-4.364,2.707-7.064,4.344c-3.59,2.178-7.025,5.719-9.958,8.678c-2.234,2.254-4.704,6.023-6.388,8.822
	c-2.075,3.451-3.294,5.979-4.892,9.939c-2.658,6.588-4.78,16.227-4.78,25.264c0,15.924,6.027,35.076,15.532,46.834
	c4.201,5.197,12.328,10.318,18.738,12.447c12.481,4.143,15.404,3.086,28.098,3.086c41.578,0,83.156,0,124.734,0l-3.042-9.889
	H192.301L192.301,499.827z M627.355,560.685c-1.101-5.691-12.815-46.373-14.782-53.695c-4.809-17.9-9.818-35.805-14.863-53.596
	l-11.174-40.164c-0.967-3.242-1.558-3.682-0.445-7.143c2.547-7.93,16.785-56.811,18.023-58.412l66.087,213.111L627.355,560.685
	L627.355,560.685z M754.94,443.288c-1.108-4.896-4.824-12.918-6.739-17.914c-1.172-3.055-2.294-5.934-3.374-8.795
	c-0.53-1.406-2.646-8.115-3.772-8.359l-101.641,0.008l7.962,26.328c0.581,1.871,1.95,7.82,3.17,8.74L754.94,443.288L754.94,443.288z
	 M632.292,384.601c0.583,1.303,1.102,3.896,1.665,5.563c0.602,1.779,1.003,3.658,1.758,5.086h114.847
	c1.169,2.209,1.92,5.154,2.928,7.721l16.994,45.752c0.604,1.734,2.485,6.408,2.515,7.754c-39.53,0-78.452-0.381-118.269-0.381
	c0.216,2.6,2.995,8.906,3.042,11.029h47.916c1.175,0,1.219,0.828,1.601,1.822l2.688,6.438c2.61,6.113,4.868,10.381,8.745,15.594
	c8.46,11.379,24.317,22.16,39.065,22.16c8.341,0,5.519,0.047,13.282-0.789c1.937-0.207,4.136-0.715,6.041-1.184
	c10.198-2.508,20.859-7.98,27.512-16.221c17.345-21.484,18.938-51.123,9.59-77.4c-2.174-6.109-4.669-10.48-8.558-15.4
	c-4.867-6.158-10.993-10.568-18.193-13.75c-8.3-3.668-15.907-3.793-27.772-3.793C717.223,384.601,674.758,384.601,632.292,384.601
	L632.292,384.601z M213.99,560.274c-0.219-1.98-11.695-32.865-13.013-35.209c-15.71-0.682-34.983,1.822-49.179-4.131
	c-25.137-10.543-39.97-37.064-42.1-64.287c-1.195-15.27,1.263-34.277,7.108-46.008c10.526-21.125,33.471-42.037,65.987-40.996
	c25.96,0.832,46.852,13.811,57.542,35.754c1.173,2.408,3.506,9.066,4.445,9.316l35.318-0.002c-0.688-12.4-11.225-32.236-19.147-42.1
	c-15.093-18.791-37.424-32.801-65.644-36.658c-28.856-3.943-64.278,7.77-85.687,25.293c-9.691,7.934-16.426,15.592-23.509,27.826
	c-15.929,27.52-19.125,69.684-7.327,101.412c4.116,11.068,7.951,18.682,13.861,27.234c5.412,7.834,12.766,15.678,19.517,21.178
	c11.816,9.623,25.569,16.975,41.796,19.811C165.583,560.741,201.841,560.483,213.99,560.274L213.99,560.274z M728.518,335.446
	c12.932-0.572,28.045-0.203,41.074,0.146c13.111,0.354,23.23,2.529,34.802,6.203c30.258,9.602,51.223,35.26,60.252,62.965
	c3.327,10.209,5.73,23.258,6.271,34.824c1.224,26.184-3.483,48.576-14.072,68.029c-8.607,15.813-25.724,32.281-41.255,40.889
	c-29.271,16.221-68.156,17.664-99.578,2.219c-10.347-5.086-17.411-10.762-24.06-17.002c-6.618-6.211-12.504-13.771-18.066-23.004
	c-3.704-6.148-10.974-21.631-11.682-29.939l36.711,0.061c3.673,7.836,4.217,11.002,10.302,18.885
	c4.625,5.992,8.799,10.045,15.14,14.527c13.354,9.441,27.56,12.76,47.595,10.475c24.945-2.846,42.397-15.807,52.568-36.121
	c11.166-22.303,10.697-51.582,3.002-74.477c-4.965-14.766-15.773-26.309-25.945-33.385c-16.087-11.188-26.926-9.805-49.113-9.973
	c-2.396-0.018-4.837-0.043-7.229-0.006c-5.115,0.08-3.383,1.77-8.917-13.369C733.627,350.036,730.988,342.823,728.518,335.446
	L728.518,335.446z M628.109,370.331l98.838-0.025c-0.695-2.773-2.143-5.945-3.212-8.701c-1.146-2.953-2.227-5.77-3.364-8.799
	l-6.832-17.533l-97.062-0.168l8.33,26.566C625.377,363.462,626.51,369.392,628.109,370.331L628.109,370.331z M504.51,501.321
	c-0.956-1.428-11.38-37.279-12.729-42.002c-7.93-27.734-17.144-56.984-25.396-84.877c-3.35-11.318-8.201-25.943-11.15-36.775
	c-0.982-3.607-0.607-2.875-4.338-2.875l-38.479-0.061c-1.54,3.498-3.156,9.705-4.393,13.854c-1.434,4.809-2.993,9.518-4.388,14.238
	c-2.78,9.412-5.661,18.768-8.698,28.178c-5.997,18.582-11.761,37.885-17.465,56.709l-26.22,84.814
	c-2.813,9.289-6.361,19.162-8.819,28.572c12.621,0.305,29.779,0.006,42.455,0.02c1.545-7.338,9.146-32.82,11.707-41.811
	l23.603-84.387c1.993-7.133,3.944-13.982,5.841-21.174c1.882-7.129,4.26-14.396,5.899-21.25c1.102,1.686,5.33,17.234,6.341,20.715
	c10.06,34.627,21.292,70.764,30.942,105.162c4.051,14.441,8.627,28.162,12.5,42.291c5.248,0.414,33.973,0.213,42.301,0.08
	c2.429-9.207,5.631-19.131,8.494-28.332c2.934-9.426,5.654-18.895,8.621-28.273c11.838-37.436,22.859-75.48,34.53-113.018
	c2.905-9.344,5.858-18.904,8.598-28.295c1.242-4.26,8.428-25.873,8.373-28.244l-38.688-0.01c-3.616-0.021-2.67,0.244-4.92,8.219
	c-1.02,3.609-2.014,7.098-2.997,10.678l-29.619,105.396C512.405,472.94,508.195,487.347,504.51,501.321L504.51,501.321z
	 M334.862,539.013c1.877-7.973,5.273-17.064,7.898-24.889c0.849-2.529,11.893-36.004,11.766-37.398l-25.29-90.27
	c-3.701-13.658-11.957-40.121-14.396-51.844l-43.821,0.035c0.723,3.592,2.73,9.168,3.958,12.918
	c9.492,28.977,18.367,60.074,27.661,89.475C304.106,441.683,333.774,537.479,334.862,539.013L334.862,539.013z M682.49,543.94
	c1.383,0.926,4.815,4.998,6.369,6.561c16.036,16.131,41.846,26.658,65.891,26.52c2.665-0.016,3.619,0.395,6.066,0.398
	c6.243,0.01,12.792-0.158,18.812-0.99c27.903-3.852,51.098-14.793,70.854-34.484c4.382-4.367,8.242-9.268,11.994-14.244
	c15.584-20.678,24.145-55.361,24.233-81.117c0.025-7.477-1.05-16.863-2.229-24.012c-2.581-15.627-9.271-34.432-17.568-48.221
	c-3.66-6.082-7.968-11.373-12.625-16.658c-0.714-0.811-0.761-1.082-1.519-1.902c-1.305-1.412-2.138-2.021-3.601-3.246
	c-3.546-2.965-6.965-6.307-10.831-8.943c-0.792-0.539-1.225-0.803-2.094-1.328c-10.152-6.131-17.074-10.201-28.726-13.867
	l-10.406-2.904c-5.686-1.303-16.535-3.619-22.579-3.66c-9.391-0.064-19.709-0.842-29.287-0.336c-1.813,0.098-0.863,0.098-2.677,0
	c-6.667-0.352-12.404,0.348-19.388,0.348c-8.715,0-61.147,0.461-65.734-0.055c-3.584-0.402-8.783-0.633-12.978-0.291
	c-5.804,0.471-42.801-0.033-52.106-0.033c-17.62,0-35.24,0-52.86,0c-1.14,2.377-3.738,13.443-4.409,16.125l-8.819,32.633
	c-1.421,5.535-2.906,10.857-4.484,16.432l-11.028,40.691c-0.851,3.008-1.364,5.406-2.222,8.424c-0.805,2.83-1.499,5.225-2.197,8.072
	l-2.587,8.061c-0.169-2.033-1.636-6.164-2.233-8.033c-6.072-18.984-11.115-38.307-17.3-57.236
	c-5.023-15.381-10.245-33.152-14.936-48.953l-3.725-12.248c-0.396-1.357-0.848-2.91-1.355-3.967H403.74
	c-1.318,2.748-4.305,13.492-5.187,16.488l-10.356,32.998c-0.91,2.881-1.631,5.512-2.609,8.418c-0.991,2.943-1.726,5.342-2.626,8.402
	l-15.585,49.824c-0.974,2.9-1.72,5.459-2.667,8.361c-0.799,2.445-2.368,6.258-2.42,8.607c-1.286-0.941-0.834-1.617-1.387-3.557
	l-12.464-46.1c-0.838-2.951-1.521-5.35-2.271-8.377c-3.447-13.93-7.652-27.846-11.261-41.6l-6.763-25.18
	c-0.542-2.131-1.585-6.67-2.361-8.287h-74.536c1.237,5.309,8.071,23.83,8.366,27.381c-2.159-1.445-4.597-4.352-6.789-6.143
	c-7.508-6.129-15.656-10.191-24.882-13.906c-27.344-11.014-61.866-10.963-88.832-1.961c-15.53,5.186-29.489,12.385-42.318,22.713
	c-5.464,4.398-14.098,14.402-18.417,20.373c-11.372,15.717-19.099,36.186-21.95,56.008c-1.727,12-2.038,23.656-1.056,36.27
	c0.319,4.104,0.792,7.809,1.512,11.418c2.679,13.441,7.042,26.824,13.094,39.006c2.798,5.631,6.204,10.982,9.682,16.178
	c1.757,2.625,3.539,4.953,5.523,7.406l5.965,6.965c2.988,3.912,9.318,9.434,13.524,12.715l11.553,7.842
	c10.684,6.453,31.515,13.523,44.5,13.684c8.716,0.107,17.527-0.016,26.255-0.016c69.212,0,138.424,0,207.637,0l4.609-17.066
	c1.638-5.566,2.982-11.264,4.652-17.023c1.689-5.826,2.99-11.172,4.648-17.027l19.888-72.904c0.436-1.576,0.854-2.803,1.269-4.436
	c0.694-2.73,2.135-5.828,2.202-8.826c1.29,0.945,0.391-0.105,0.949,1.713c3.291,10.725,5.658,21.393,8.774,32.297l21.002,77.113
	c1.404,5.164,6.597,22.234,6.923,26.16h64.649c1.563-3.258,19.156-63.506,22.007-71.924c3.036-8.965,5.478-17.74,8.172-26.813
	c0.959-3.232,1.827-5.832,2.745-9.045c1.227-4.297,9.627-32.998,11.05-35.725c0.027-0.053,0.086-0.166,0.139-0.242
	c3.484,14.955,8.417,29.824,11.822,44.842c2.014,8.881,4.866,18.234,7.195,27.029l11.866,44.799
	c2.27,8.912,5.079,18.209,7.146,27.078h76.438c-0.602-1.254-0.85-2.428-1.302-4.021C690.082,568.532,682.56,547.069,682.49,543.94z"
	/>
<path fill-rule="evenodd" clip-rule="evenodd" fill="#3B55A5" d="M504.51,501.321c-0.956-1.428-11.38-37.279-12.729-42.002
	c-7.93-27.734-17.144-56.984-25.396-84.877c-3.35-11.318-8.201-25.943-11.15-36.775c-0.982-3.607-0.607-2.875-4.338-2.875
	l-38.479-0.061c-1.54,3.498-3.156,9.705-4.393,13.854c-1.434,4.809-2.993,9.518-4.388,14.238c-2.78,9.412-5.661,18.768-8.698,28.178
	c-5.997,18.582-11.761,37.885-17.465,56.709l-26.22,84.814c-2.813,9.289-6.361,19.162-8.819,28.572
	c12.621,0.305,29.779,0.006,42.455,0.02c1.545-7.338,9.146-32.82,11.707-41.811l23.603-84.387
	c1.993-7.133,3.944-13.982,5.841-21.174c1.882-7.129,4.26-14.396,5.899-21.25c1.102,1.686,5.33,17.234,6.341,20.715
	c10.06,34.627,21.292,70.764,30.942,105.162c4.051,14.441,8.627,28.162,12.5,42.291c5.248,0.414,33.973,0.213,42.301,0.08
	c2.429-9.207,5.631-19.131,8.494-28.332c2.934-9.426,5.654-18.895,8.621-28.273c11.838-37.436,22.859-75.48,34.53-113.018
	c2.905-9.344,5.858-18.904,8.598-28.295c1.242-4.26,8.428-25.873,8.373-28.244l-38.688-0.01c-3.616-0.021-2.67,0.244-4.92,8.219
	c-1.02,3.609-2.014,7.098-2.997,10.678l-29.619,105.396C512.405,472.94,508.195,487.347,504.51,501.321z"/>
<path fill-rule="evenodd" clip-rule="evenodd" fill="#EE2227" d="M728.518,335.446c2.471,7.377,5.109,14.59,7.799,21.947
	c5.534,15.139,3.802,13.449,8.917,13.369c2.393-0.037,4.834-0.012,7.229,0.006c22.188,0.168,33.026-1.215,49.113,9.973
	c10.172,7.076,20.98,18.619,25.945,33.385c7.695,22.895,8.164,52.174-3.002,74.477c-10.171,20.314-27.623,33.275-52.568,36.121
	c-20.035,2.285-34.24-1.033-47.595-10.475c-6.341-4.482-10.515-8.535-15.14-14.527c-6.085-7.883-6.629-11.049-10.302-18.885
	l-36.711-0.061c0.708,8.309,7.978,23.791,11.682,29.939c5.563,9.232,11.448,16.793,18.066,23.004
	c6.648,6.24,13.713,11.916,24.06,17.002c31.422,15.445,70.307,14.002,99.578-2.219c15.531-8.607,32.647-25.076,41.255-40.889
	c10.589-19.453,15.296-41.846,14.072-68.029c-0.541-11.566-2.944-24.615-6.271-34.824c-9.029-27.705-29.994-53.363-60.252-62.965
	c-11.571-3.674-21.69-5.85-34.802-6.203C756.563,335.243,741.449,334.874,728.518,335.446z"/>
<path fill-rule="evenodd" clip-rule="evenodd" fill="#EE2227" d="M213.99,560.274c-0.219-1.98-11.695-32.865-13.013-35.209
	c-15.71-0.682-34.983,1.822-49.179-4.131c-25.137-10.543-39.97-37.064-42.1-64.287c-1.195-15.27,1.263-34.277,7.108-46.008
	c10.526-21.125,33.471-42.037,65.987-40.996c25.96,0.832,46.852,13.811,57.542,35.754c1.173,2.408,3.506,9.066,4.445,9.316
	l35.318-0.002c-0.688-12.4-11.225-32.236-19.147-42.1c-15.093-18.791-37.424-32.801-65.644-36.658
	c-28.856-3.943-64.278,7.77-85.687,25.293c-9.691,7.934-16.426,15.592-23.509,27.826c-15.929,27.52-19.125,69.684-7.327,101.412
	c4.116,11.068,7.951,18.682,13.861,27.234c5.412,7.834,12.766,15.678,19.517,21.178c11.816,9.623,25.569,16.975,41.796,19.811
	C165.583,560.741,201.841,560.483,213.99,560.274z"/>
<path fill-rule="evenodd" clip-rule="evenodd" fill="#3B55A5" d="M627.355,560.685l42.846,0.102l-66.087-213.111
	c-1.238,1.602-15.477,50.482-18.023,58.412c-1.112,3.461-0.521,3.9,0.445,7.143l11.174,40.164
	c5.045,17.791,10.055,35.695,14.863,53.596C614.54,514.312,626.255,554.993,627.355,560.685z"/>
<path fill-rule="evenodd" clip-rule="evenodd" fill="#3B55A5" d="M334.862,539.013c1.877-7.973,5.273-17.064,7.898-24.889
	c0.849-2.529,11.893-36.004,11.766-37.398l-25.29-90.27c-3.701-13.658-11.957-40.121-14.396-51.844l-43.821,0.035
	c0.723,3.592,2.73,9.168,3.958,12.918c9.492,28.977,18.367,60.074,27.661,89.475C304.106,441.683,333.774,537.479,334.862,539.013z"
	/>
<path fill-rule="evenodd" clip-rule="evenodd" fill="#3B55A5" d="M650.546,443.296l104.395-0.008
	c-1.108-4.896-4.824-12.918-6.739-17.914c-1.172-3.055-2.294-5.934-3.374-8.795c-0.53-1.406-2.646-8.115-3.772-8.359l-101.641,0.008
	l7.962,26.328C647.957,436.427,649.326,442.376,650.546,443.296z"/>
<polygon fill-rule="evenodd" clip-rule="evenodd" fill="#3B55A5" points="201.544,485.673 302.64,485.788 291.453,450.796 
	188.883,450.854 "/>
<polygon fill-rule="evenodd" clip-rule="evenodd" fill="#3B55A5" points="228.894,560.581 326.83,560.626 315.54,525.364 
	216.219,525.368 "/>
<path fill-rule="evenodd" clip-rule="evenodd" fill="#3B55A5" d="M628.109,370.331l98.838-0.025
	c-0.695-2.773-2.143-5.945-3.212-8.701c-1.146-2.953-2.227-5.77-3.364-8.799l-6.832-17.533l-97.062-0.168l8.33,26.566
	C625.377,363.462,626.51,369.392,628.109,370.331z"/>
<path display="none" fill-rule="evenodd" clip-rule="evenodd" fill="#BFBFBF" d="M894.69,518.843
	c1.218-1.402,1.024-0.891,1.141-2.283C894.916,517.231,894.816,517.321,894.69,518.843z"/>
<polygon display="none" fill-rule="evenodd" clip-rule="evenodd" fill="#BFBFBF" points="847.915,577.026 847.535,577.026 
	847.852,577.47 "/>
<polygon display="none" fill-rule="evenodd" clip-rule="evenodd" fill="#BFBFBF" points="894.69,518.843 894.31,518.843 
	894.627,519.286 "/>
<polygon display="none" fill-rule="evenodd" clip-rule="evenodd" fill="#BFBFBF" points="848.676,575.886 849.056,575.886 
	848.738,575.442 "/>
<path display="none" fill-rule="evenodd" clip-rule="evenodd" fill="#BFBFBF" d="M893.93,519.983l0.113-0.113
	C894.035,519.878,893.892,519.944,893.93,519.983z"/>
<path display="none" fill-rule="evenodd" clip-rule="evenodd" fill="#BFBFBF" d="M848.295,576.646l0.381-0.76L848.295,576.646z"/>
<path display="none" fill-rule="evenodd" clip-rule="evenodd" fill="#BFBFBF" d="M848.295,576.646l-0.38,0.381L848.295,576.646z"/>
<path display="none" fill-rule="evenodd" clip-rule="evenodd" fill="#BFBFBF" d="M706.659,223.524
	c-4.494-2.074-9.66-5.098-14.428-7.424c-4.72-2.305-10.456-4.693-15.388-6.666c-12.08-4.834-10.462-2.514-13.3-8.756
	c-1.949-4.285-5.566-11.119-6.821-15.361c3.874,0.807,11.977,5.143,15.161,7.014C683.564,199.192,700.003,212.026,706.659,223.524
	L706.659,223.524z M421.974,184.677c2.972-1.676,27.73-6.533,32.957-7.379c4.076-0.66,3.939,1.447,6.029,3.547l14.315,15.656
	c-5.864,0.305-13.063,1.918-18.704,3.045c-22.548,4.502-15.885,5.484-22.417-1.098l-8.394-9.244
	C424.506,187.604,422.8,186.251,421.974,184.677L421.974,184.677z M481.916,171.624c18.028-3.465,44.475-7.012,63.564-6.135
	c0.837,2.096,13.29,18.037,14.916,21.379c-5.194,0.377-10.578,0.223-15.777,0.572c-10.292,0.697-19.639,2.018-29.716,3.135
	c-3.771,0.418-11.343,1.951-14.397,1.852C497.121,188.167,483.54,174.364,481.916,171.624L481.916,171.624z M631.087,194.671
	c-2.288-0.314-6.007-1.35-8.527-1.924c-9.701-2.213-16.286-3.125-26.457-4.15c-5.595-0.563-5.046,0-7.131-3.053l-12.069-18.293
	c4.952,0.438,41.102,5.068,43.823,7.49L631.087,194.671L631.087,194.671z M436.917,98.653c1.393-0.852,10.09-2.594,12.635-3.172
	c7.347-1.67,6.416-0.727,10.964,2.727c3.737,2.838,14.448,10.994,17.27,13.68l-19.935,3.73c-3.711,0.613-3.371,0.693-5.558-1.477
	L436.917,98.653L436.917,98.653z M477.576,90.856c0.446,0.572,0.076,0.166,0.616,0.66c0.068,0.063,0.676,0.553,0.849,0.678
	l18.726,13.607c3.663,2.664,2.718,3.049,8.482,2.23c6.671-0.945,13.993-1.713,20.729-2.385c7.553-0.756,14.868-0.631,22.394-1.119
	c-0.318-0.467-27.762-18.158-29.616-18.887c-3.731-1.467-18.189-0.08-22.291,0.732C490.313,87.79,484.297,89.079,477.576,90.856
	L477.576,90.856z M386.175,90.933l-0.717,0.424L386.175,90.933L386.175,90.933z M649.699,118.757
	c-4.362-1.531-8.767-3.309-13.572-4.65c-22.248-6.207-16.714,0.121-23.944-12.428c-2.008-3.486-5.137-8.004-6.601-11.584
	c3.896,0.557,10.514,2.975,14.099,4.447C629.207,98.454,645.573,110.573,649.699,118.757L649.699,118.757z M386.175,90.933
	c0.584-0.873,0.978-1.154,1.907-1.768c1.087-0.719,1.291-0.969,2.292-1.752l64.703-48.525c1.602-1.199,3.092-2.441,4.623-3.465
	c5.104,3.418,40.462,29.451,41.173,30.512c-14.587,1.215-33.223,5.445-47.501,9.113l-52.271,13.166
	C397.358,89.015,389.512,90.933,386.175,90.933L386.175,90.933z M392.057-143.433c-48.394-0.108-97.283,0.301-145.646,0.631
	c0.41,0.951,0.561,0.911,1.587,1.717l14.151,10.479c5.538,3.841,10.697,7.876,16.368,11.937
	c10.929,7.826,21.676,15.988,32.476,23.775l65.287,47.564c-0.238,3.049-9.129,29.296-10.802,34.488
	c-2.539,7.877-32.454,100.248-32.753,103.877c4.869,1.266,17.071,5.432,21.871,2.139l104.349-78.992
	c1.959,0.596,62.061,44.768,64.053,46.174l55.933,40.379c1.87,1.342,6.686,5.137,8.487,5.756c-0.364-2.777-1.967-7.072-2.872-9.896
	L542.822-36.659c-0.896-2.813-2.434-6.706-2.941-9.546c5.859-3.914,25.836-19.578,31.723-24.099l79.655-60.039
	c1.445-1.085,14.849-10.618,15.435-12.507l-159.66-0.365c-8.326-25.526-16.17-51.094-24.779-76.626
	c-4.313-12.791-8.058-25.696-12.405-38.324l-13.165-37.998l-6.614,20.488c-10.884,33.989-22.542,68.565-33.27,102.762l-8.298,25.532
	C406.883-142.306,408.893-143.395,392.057-143.433L392.057-143.433z M288.505,68.509c-0.701,12.619,14.113,23.854,22.377,28.236
	c11.409,6.051,24.94,9.914,39.699,10.975c17.084,1.227,30.903,0.58,47.637-1.482c3.821-0.471,7.57-1.123,11.317-1.535
	c1.885-0.209,2.504,1.152,3.627,2.254l9.55,9.199c1.627,1.729,5.151,4.131,6.303,6.025l-20.889,5.414
	c-7.265,1.674-14.719,2.869-21.978,4.457c-15.992,3.5-32.087,3.365-48.862,2.383c-23.383-1.367-53.288-13.361-64.461-34.557
	c-0.712-1.352-1.363-3.457-2.083-4.268l-6.323,9.955c-0.772,1.17-1.795,1.947-1.264,3.941c1.49,5.584,9.978,14.824,14.291,18.836
	c1.007,0.938,2.011,1.508,3.106,2.408c4.108,3.375,9.01,6.164,13.87,8.188c1.467,0.611,2.65,0.967,3.892,1.623
	c-1.917,3.996-3.58,10.789-5.012,15.207c-0.621,1.916-1.169,3.51-1.605,5.381c2.234-0.598,5.271-3.494,7.195-4.938l10.346-7.666
	c7.772-5.834,2.715-2.67,13.373-1.768c2.285,0.193,2.837,0.695,5.111,0.77c2.655,0.088,3.136,0.695,5.501,0.748l11.409,0.723
	c2.75,0.148,9.481,0.221,11.978-0.156c4.543-0.688,11.35-0.063,17.209-1.172c1.886-0.357,3.833-0.188,5.604-0.646l10.742-1.389
	c1.27-0.143,3.457-0.738,4.786-1.096l22.938-4.635c1.279-0.191,1.967-0.156,2.93-0.379l58.288-11.561
	c0.848-0.195,1.688-0.248,2.864-0.443c1.797-0.299,3.79-0.629,5.411-0.838c1.049-0.137,1.636-0.119,2.614-0.328
	c1.439-0.307,1.222-0.363,2.787-0.521c3.407-0.344,7.146-1.324,10.396-1.734l22.3-1.963c3.714-0.283,7.737-0.279,11.633-0.867
	c5.663-0.855,12.001-0.025,17.813-0.199c2.105-0.064,3.27-0.623,5.814-0.328l11.449,0.686c6.74,0.092,8.251,2.316,12.712,5.67
	l22.584,17.119c0.858,0.607,1.217,0.627,1.836,1.471c-1.711-0.143-4.107-0.74-5.614-1.002l-23.896-3.309
	c-6.365-0.789-13-0.795-19.438-1.518c-4.11-0.461-28.852-0.246-33.612,0.471l-19.259,1.695c-1.662,0.111-4.438,0.398-5.95,0.666
	c-2.062,0.367-4.187,0.402-6.16,0.826l-12.32,1.648c-10.414,1.607-18.572,3.27-28.679,5.51c-1.244,0.275-1.58,0.387-2.654,0.654
	c-1.117,0.277-2.004,0.367-3.029,0.646c-1.795,0.486-3.641,0.818-5.699,1.285c-4.474,1.018-9.738,1.807-13.924,2.986l-19.609,4.654
	c-2.226,0.502-3.479,0.941-5.524,1.461l-14.367,2.91c-0.735,0.141-1.946,0.176-2.932,0.377c-9.681,1.977-19.614,3.848-29.552,5.006
	c-2.03,0.234-4.253,0.303-6.374,0.609c-11.105,1.609-33.737,0.613-45.398-1.713c-10.083-2.01-21.579-5.65-30.18-11.361
	c-2.727-1.811-5.389-3.533-7.969-5.633c-7.041-5.73-9.804-8.373-13.929-13.643l-3.942-6.352c-0.645-1.365-0.413-1.598-1.727-1.949
	c-0.982,3.68-7.763,10.938-8.836,14.705c3.448,11.408,21.247,24.432,30.654,30.012c4.344,2.576,16.707,7.709,21.053,9.055
	c8.533,2.641,15.463,4.049,24.905,5.711c8.814,1.553,19.308,1.441,28.541,1.648c10.466,0.234,30.976-1.971,41.652-4.086
	c2.872-0.568,2.442,0.369,4.488,2.322c1.538,1.467,2.509,2.414,3.828,3.893l11.059,11.738c1.319,1.211,2.901,2.775,3.611,3.965
	c-8.313,1.516-16.787,4.07-25.089,5.799c-4.437,0.924-8.608,1.592-13.062,2.338c-4.327,0.725-9.053,1.807-13.613,2.223
	c-9.362,0.855-18.808,1.832-28.416,2.391c-9.518,0.553-20.934,0.109-30.124-0.838c-16.329-1.686-35.458-7.209-47.943-14.178
	c-7.193-4.014-13.279-8.002-18.092-13.152c-0.697-0.746-1.035-0.93-1.913-1.762c-0.817-0.773-1.156-1.355-1.839-2.211
	c-7.175-8.994-7.117-12.602-8.803-14.811c-1.755,1.57-3.129,4.623-4.485,6.631c-5.122,7.588-5.475,5.986-1.157,14.541
	c6.021,11.928,17.74,20.543,29.014,27.232c11.871,7.043,26.793,12.58,40.645,14.865c13.568,2.24,27.317,3.67,41.129,3.73
	c2.36,0.012,3.178-0.326,5.13-0.385c4.553-0.135,11.843,0.039,15.976-0.566c3.441-0.504,7.071-0.598,10.471-0.926
	c13.174-1.271,26.553-3.449,38.781-6.068c6.28-1.346,12.039-2.965,18.585-3.84c5.712-0.766,31.65-6.301,37.303-7.547
	c13.176-2.9,38.227-6.686,52.51-8.516c1.757-0.225,3.998-0.248,5.473-0.41c1.752-0.191,3.703-0.211,5.147-0.365
	c5.425-0.584,10.729-0.154,15.966-0.945c1.913-0.291,3.371-0.076,5.282-0.232c1.771-0.146,2.854-0.359,5.174-0.342
	c2.358,0.02,2.992-0.363,5.124-0.389l16.926,0.014c22.134,0,49.087,3.594,70.493,8.178c20.303,4.348,40.056,10.91,59.229,18.707
	c6.465,2.629,12.698,6.043,19.063,8.877c1.559,0.693,2.374,1.229,3.9,1.98c6.203,3.061,12.17,6.25,18.047,9.893l11.743,7.373
	c0.062,0.047,0.149,0.109,0.211,0.156l2.838,1.941c0.092,0.059,0.355,0.229,0.447,0.287c2.119,1.381,6.211,5.305,8.5,5.838
	c-0.349-0.727-0.814-2.434-1.101-3.311c-0.392-1.195-0.702-2.021-1.161-3.25c-0.787-2.105-1.514-4.512-2.407-6.783
	c-5.616-14.281-11.446-26.563-19.435-39.754c-0.654-1.08-1.085-1.77-1.63-2.779l-7.059-11.324c-1.271-1.908-2.361-3.578-3.756-5.434
	c-0.772-1.027-1.125-1.365-1.905-2.506c-13.787-20.164-53.762-38.666-77.436-46.086c-25.851-8.102-19.935-2.51-23.803-12.959
	l-3.316-10.285c-0.398-1.32-0.755-2.199-1.101-3.68c10.38,2.418,20.139,4.889,29.97,8.264l16.824,6.336
	c2.035,0.809,3.482,1.553,5.409,2.311c6.202,2.439,12.181,5.797,18.018,8.818l9.852,5.59c1.868,1.213,5.529,3.9,7.422,4.342
	c-0.339-1.455-1.229-3.18-1.842-4.408c-0.719-1.443-1.284-3.025-1.938-4.68c-3.554-8.975-8.794-17.051-13.706-25.262
	c-1.656-2.768-3.26-5.227-5.012-7.854c-1.745-2.619-3.195-5.24-5.184-7.684c-2.002-2.459-3.646-4.727-5.616-7.25l-5.938-7.297
	c-8.594-8.928-18.271-16.738-29.508-22.326c-5.929-2.947-11.753-5.314-18.243-7.49c-3.426-1.15-6.662-1.834-10.103-2.766
	c-1.632-0.439-3.79-0.857-5.477-1.141c-1.857-0.311-3.667-0.949-5.514-1.102c-0.272-3.271-6.813-22.104-7.949-25.506
	c-1.447-4.336-2.81-8.715-4.095-12.816c-6.003-19.154-12.634-38.248-18.261-57.467c-0.672-2.297-1.538-4.229-2.046-6.41
	c1.49-2.224,21.31-16.255,25.051-19.063l70.478-53.043c0.88-0.66,1.63-1.176,2.511-1.9l7.521-5.714
	c6.742-5.036,18.807-13.914,25.028-19.086c6.43-5.345,13.543-9.98,20.021-15.271l7.465-5.769c1.275-0.906,1.653-0.829,2.575-2.205
	c-18.408,0-32.563-0.368-49.629-0.368l-150.357-0.368c-1.86-3.877-6.366-19.279-7.858-23.757c-1.372-4.113-2.605-7.814-3.952-11.855
	l-27.436-83.587c-2.592-7.845-4.975-16.124-7.81-23.806l-3.906-11.902c-0.711-2.118-1.168-3.724-1.845-5.875l-9.058-26.969
	c-0.417-1.093-0.737-1.921-0.999-3.045h-0.735c-0.479,2.058-1.259,3.742-1.93,5.791c-0.6,1.835-1.378,4.203-2.057,6.03
	c-5.553,14.928-10.519,32.247-15.636,47.595l-2.897,8.867c-0.385,1.134-0.695,2.004-1.005,3.038l-7.821,24.162
	c-2.716,8.067-4.98,15.843-7.716,23.899c-5.412,15.938-10.247,32.049-15.575,48.024c-1.365,4.091-2.513,7.906-3.862,11.946
	c-0.657,1.969-1.297,3.913-2.021,6.067c-0.419,1.248-0.566,1.815-0.961,3.083c-0.179,0.574-0.736,2.448-1.015,3.029
	c-33.685,0-66.491-0.368-100.36-0.368c-33.736,0-66.752,0.368-100.729,0.368c1.269,1.732,17.285,13.198,20.146,15.145l61.101,45.142
	c1.003,0.702,1.551,1.136,2.516,1.896c0.858,0.675,1.679,1.158,2.576,1.835c1.753,1.323,3.229,2.423,5.041,3.781
	c3.493,2.619,6.708,4.925,10.135,7.512l5.042,3.781c7.543,5.635,15.394,11.092,22.791,16.912c0.858,0.676,1.679,1.158,2.576,1.835
	l25.471,18.645c0.875,0.656,1.68,1.294,2.522,1.889c0.786,0.555,2.016,1.594,2.939,1.84c-0.944,4.052-4.881,15.277-6.425,20.042
	L330.25,40.522c-1.459,4.371-3.018,9.191-4.362,13.65c-1.27,4.213-2.521,9.654-4.414,13.6c-6.828-3.613-18.827-7.795-27.006-4.582
	C292.066,64.134,288.714,65.917,288.505,68.509z"/>
<path display="none" fill-rule="evenodd" clip-rule="evenodd" fill="#3B55A4" d="M392.057-143.433
	c-48.394-0.108-97.283,0.301-145.646,0.631c0.41,0.951,0.561,0.911,1.587,1.717l14.151,10.479
	c5.538,3.841,10.697,7.876,16.368,11.937c10.929,7.826,21.676,15.988,32.476,23.775l65.287,47.564
	c-0.238,3.049-9.129,29.296-10.802,34.488c-2.539,7.877-32.454,100.248-32.753,103.877c4.869,1.266,17.071,5.432,21.871,2.139
	l104.349-78.992c1.959,0.596,62.061,44.768,64.053,46.174l55.933,40.379c1.87,1.342,6.686,5.137,8.487,5.756
	c-0.364-2.777-1.967-7.072-2.872-9.896L542.822-36.659c-0.896-2.813-2.434-6.706-2.941-9.546
	c5.859-3.914,25.836-19.578,31.723-24.099l79.655-60.039c1.445-1.085,14.849-10.618,15.435-12.507l-159.66-0.365
	c-8.326-25.526-16.17-51.094-24.779-76.626c-4.313-12.791-8.058-25.696-12.405-38.324l-13.165-37.998l-6.614,20.488
	c-10.884,33.989-22.542,68.565-33.27,102.762l-8.298,25.532C406.883-142.306,408.893-143.395,392.057-143.433z"/>
<path display="none" fill-rule="evenodd" clip-rule="evenodd" fill="#ED2227" d="M219.643,175.397
	c1.686,2.209,1.628,5.816,8.803,14.811c0.683,0.855,1.022,1.438,1.839,2.211c0.878,0.832,1.215,1.016,1.913,1.762
	c4.813,5.15,10.899,9.139,18.092,13.152c12.486,6.969,31.614,12.492,47.943,14.178c9.189,0.947,20.605,1.391,30.124,0.838
	c9.607-0.559,19.053-1.535,28.416-2.391c4.561-0.416,9.286-1.498,13.613-2.223c4.454-0.746,8.625-1.414,13.062-2.338
	c8.302-1.729,16.775-4.283,25.089-5.799c-0.71-1.189-2.292-2.754-3.611-3.965l-11.059-11.738c-1.319-1.479-2.29-2.426-3.828-3.893
	c-2.046-1.953-1.616-2.891-4.488-2.322c-10.676,2.115-31.186,4.32-41.652,4.086c-9.233-0.207-19.727-0.096-28.541-1.648
	c-9.441-1.662-16.372-3.07-24.905-5.711c-4.346-1.346-16.709-6.479-21.053-9.055c-9.407-5.58-27.206-18.604-30.654-30.012
	c-1.73,2.053-3.226,5.043-4.762,7.357c-1.675,2.521-3.185,4.949-4.93,7.568C227.807,162.136,220.146,173.487,219.643,175.397z"/>
<path display="none" fill-rule="evenodd" clip-rule="evenodd" fill="#ED2227" d="M270.742,95.61c0.72,0.811,1.371,2.916,2.083,4.268
	c11.174,21.195,41.079,33.189,64.461,34.557c16.774,0.982,32.87,1.117,48.862-2.383c7.259-1.588,14.713-2.783,21.978-4.457
	l20.889-5.414c-1.152-1.895-4.676-4.297-6.303-6.025l-9.55-9.199c-1.123-1.102-1.742-2.463-3.627-2.254
	c-3.747,0.412-7.496,1.064-11.317,1.535c-16.733,2.063-30.552,2.709-47.637,1.482c-14.759-1.061-28.29-4.924-39.699-10.975
	c-8.264-4.383-23.078-15.617-22.377-28.236c-1.207,0.729-7.909,11.537-9.057,13.484L270.742,95.61z"/>
<path display="none" fill-rule="evenodd" clip-rule="evenodd" fill="#ED2227" d="M481.916,171.624
	c1.624,2.74,15.205,16.543,18.59,20.803c3.055,0.1,10.627-1.434,14.397-1.852c10.077-1.117,19.424-2.438,29.716-3.135
	c5.199-0.35,10.583-0.195,15.777-0.572c-1.626-3.342-14.079-19.283-14.916-21.379C526.391,164.612,499.944,168.159,481.916,171.624z
	"/>
<path display="none" fill-rule="evenodd" clip-rule="evenodd" fill="#ED2227" d="M477.576,90.856
	c0.446,0.572,0.076,0.166,0.616,0.66c0.068,0.063,0.676,0.553,0.849,0.678l18.726,13.607c3.663,2.664,2.718,3.049,8.482,2.23
	c6.671-0.945,13.993-1.713,20.729-2.385c7.553-0.756,14.868-0.631,22.394-1.119c-0.318-0.467-27.762-18.158-29.616-18.887
	c-3.731-1.467-18.189-0.08-22.291,0.732C490.313,87.79,484.297,89.079,477.576,90.856z"/>
<path display="none" fill-rule="evenodd" clip-rule="evenodd" fill="#ED2227" d="M421.974,184.677
	c0.826,1.574,2.532,2.928,3.787,4.527l8.394,9.244c6.531,6.582-0.132,5.6,22.417,1.098c5.641-1.127,12.84-2.74,18.704-3.045
	l-14.315-15.656c-2.09-2.1-1.953-4.207-6.029-3.547C449.704,178.144,424.946,183.001,421.974,184.677z"/>
<path display="none" fill-rule="evenodd" clip-rule="evenodd" fill="#ED2227" d="M631.087,194.671l-10.361-19.93
	c-2.722-2.422-38.871-7.053-43.823-7.49l12.069,18.293c2.085,3.053,1.536,2.49,7.131,3.053c10.171,1.025,16.756,1.938,26.457,4.15
	C625.08,193.321,628.799,194.356,631.087,194.671z"/>
<path display="none" fill-rule="evenodd" clip-rule="evenodd" fill="#ED2227" d="M706.659,223.524
	c-6.656-11.498-23.095-24.332-34.775-31.193c-3.185-1.871-11.287-6.207-15.161-7.014c1.255,4.242,4.872,11.076,6.821,15.361
	c2.838,6.242,1.22,3.922,13.3,8.756c4.932,1.973,10.668,4.361,15.388,6.666C696.999,218.427,702.165,221.45,706.659,223.524z"/>
<path display="none" fill-rule="evenodd" clip-rule="evenodd" fill="#ED2227" d="M436.917,98.653l15.376,15.488
	c2.187,2.17,1.847,2.09,5.558,1.477l19.935-3.73c-2.821-2.686-13.532-10.842-17.27-13.68c-4.548-3.453-3.617-4.396-10.964-2.727
	C447.007,96.06,438.31,97.802,436.917,98.653z"/>
<path display="none" fill-rule="evenodd" clip-rule="evenodd" fill="#ED2227" d="M649.699,118.757
	c-4.126-8.184-20.492-20.303-30.019-24.215c-3.585-1.473-10.202-3.891-14.099-4.447c1.464,3.58,4.593,8.098,6.601,11.584
	c7.23,12.549,1.696,6.221,23.944,12.428C640.933,115.448,645.337,117.226,649.699,118.757z"/>
</svg>
