<?xml version="1.0" encoding="utf-8"?>
<!-- Generator: Adobe Illustrator 16.0.0, SVG Export Plug-In . SVG Version: 6.00 Build 0)  -->
<!DOCTYPE svg PUBLIC "-//W3C//DTD SVG 1.1//EN" "http://www.w3.org/Graphics/SVG/1.1/DTD/svg11.dtd">
<svg version="1.1" id="Layer_1" xmlns="http://www.w3.org/2000/svg" xmlns:xlink="http://www.w3.org/1999/xlink" x="0px" y="0px"
	 width="935.433px" height="935.433px" viewBox="0 0 935.433 935.433" enable-background="new 0 0 935.433 935.433"
	 xml:space="preserve">
<path display="none" fill-rule="evenodd" clip-rule="evenodd" fill="#BFBFBF" d="M681.503,1039.188l-0.438-0.741L681.503,1039.188
	L681.503,1039.188z M227.906,1055.829l-12.674-35.214l99.321-0.004l11.29,35.262L227.906,1055.829L227.906,1055.829z
	 M301.653,981.035l-101.096-0.115l-12.662-34.817l102.57-0.059L301.653,981.035L301.653,981.035z M191.313,995.075l-22.817-63.127
	h117.509c-0.244-2.927-2.419-6.2-2.662-9.127c-11.95,0-22.645,0.38-34.606,0.38c-16.053,0-14.258,1.148-15.775-3.619l-3.233-8.937
	c-3.509-7.063-6.878-12.128-13.196-17.227c-9.182-7.409-22.477-13.57-35.106-13.57c-10.918,0-18.356,1.778-26.243,5.701
	c-2.748,1.367-4.364,2.707-7.064,4.344c-3.59,2.177-7.025,5.718-9.958,8.677c-2.234,2.255-4.704,6.023-6.388,8.823
	c-2.075,3.45-3.294,5.979-4.892,9.939c-2.658,6.588-4.78,16.227-4.78,25.263c0,15.925,6.027,35.077,15.532,46.835
	c4.201,5.197,12.328,10.318,18.738,12.446c12.481,4.143,15.404,3.086,28.098,3.086c41.578,0,83.156,0,124.734,0l-3.042-9.888
	H191.313L191.313,995.075z M626.368,1055.933c-1.101-5.692-12.815-46.373-14.782-53.695c-4.809-17.9-9.818-35.806-14.863-53.596
	l-11.174-40.165c-0.967-3.241-1.558-3.681-0.445-7.142c2.547-7.93,16.785-56.811,18.023-58.413l66.087,213.112L626.368,1055.933
	L626.368,1055.933z M753.953,938.535c-1.108-4.896-4.824-12.917-6.739-17.913c-1.172-3.055-2.294-5.935-3.374-8.796
	c-0.53-1.405-2.646-8.114-3.772-8.358l-101.641,0.007l7.962,26.329c0.581,1.87,1.95,7.819,3.17,8.739L753.953,938.535
	L753.953,938.535z M631.305,879.849c0.583,1.303,1.102,3.896,1.665,5.562c0.602,1.78,1.003,3.659,1.758,5.087h114.847
	c1.169,2.209,1.92,5.154,2.928,7.72l16.994,45.753c0.604,1.734,2.485,6.407,2.515,7.753c-39.53,0-78.452-0.38-118.269-0.38
	c0.216,2.6,2.995,8.906,3.042,11.028H704.7c1.175,0,1.219,0.828,1.601,1.822l2.688,6.438c2.61,6.113,4.868,10.38,8.745,15.594
	c8.46,11.378,24.317,22.16,39.065,22.16c8.341,0,5.519,0.047,13.282-0.789c1.937-0.208,4.136-0.715,6.041-1.184
	c10.198-2.509,20.859-7.981,27.512-16.222c17.345-21.483,18.938-51.122,9.59-77.4c-2.174-6.108-4.669-10.48-8.558-15.4
	c-4.867-6.157-10.993-10.568-18.193-13.75c-8.3-3.668-15.907-3.792-27.772-3.792C716.235,879.849,673.771,879.849,631.305,879.849
	L631.305,879.849z M213.003,1055.522c-0.219-1.981-11.695-32.866-13.013-35.21c-15.71-0.681-34.983,1.822-49.179-4.131
	c-25.137-10.542-39.97-37.064-42.1-64.286c-1.195-15.271,1.263-34.277,7.108-46.009c10.526-21.125,33.471-42.036,65.987-40.995
	c25.96,0.832,46.852,13.811,57.542,35.754c1.173,2.408,3.506,9.065,4.445,9.316l35.318-0.002
	c-0.688-12.401-11.225-32.236-19.147-42.101c-15.093-18.791-37.424-32.801-65.644-36.658c-28.856-3.943-64.278,7.771-85.687,25.294
	c-9.691,7.933-16.426,15.591-23.509,27.826C69.195,911.841,66,954.004,77.798,985.733c4.116,11.068,7.951,18.681,13.861,27.234
	c5.412,7.834,12.766,15.677,19.517,21.177c11.816,9.624,25.569,16.975,41.796,19.812
	C164.596,1055.988,200.854,1055.731,213.003,1055.522L213.003,1055.522z M727.53,830.694c12.932-0.572,28.045-0.204,41.074,0.146
	c13.111,0.353,23.23,2.529,34.802,6.202c30.258,9.603,51.223,35.26,60.252,62.966c3.327,10.209,5.73,23.257,6.271,34.823
	c1.224,26.185-3.483,48.576-14.072,68.03c-8.607,15.813-25.724,32.281-41.255,40.888c-29.271,16.222-68.156,17.665-99.578,2.219
	c-10.347-5.086-17.411-10.762-24.06-17.001c-6.618-6.212-12.504-13.771-18.066-23.005c-3.704-6.148-10.974-21.63-11.682-29.938
	l36.711,0.061c3.673,7.836,4.217,11.001,10.302,18.885c4.625,5.991,8.799,10.044,15.14,14.526
	c13.354,9.441,27.56,12.761,47.595,10.476c24.945-2.846,42.397-15.807,52.568-36.122c11.166-22.303,10.697-51.581,3.002-74.476
	c-4.965-14.767-15.773-26.31-25.945-33.385c-16.087-11.188-26.926-9.805-49.113-9.973c-2.396-0.018-4.837-0.043-7.229-0.006
	c-5.115,0.08-3.383,1.77-8.917-13.37C732.64,845.283,730.001,838.07,727.53,830.694L727.53,830.694z M627.122,865.578l98.838-0.025
	c-0.695-2.772-2.143-5.945-3.212-8.7c-1.146-2.954-2.227-5.77-3.364-8.799l-6.832-17.534l-97.062-0.168l8.33,26.567
	C624.39,858.709,625.522,864.639,627.122,865.578L627.122,865.578z M503.522,996.569c-0.956-1.429-11.38-37.28-12.729-42.003
	c-7.93-27.733-17.144-56.983-25.397-84.877c-3.349-11.317-8.2-25.943-11.15-36.774c-0.982-3.607-0.607-2.876-4.338-2.876
	l-38.479-0.06c-1.54,3.497-3.156,9.704-4.393,13.854c-1.434,4.809-2.993,9.517-4.388,14.238c-2.78,9.411-5.661,18.767-8.698,28.177
	c-5.997,18.582-11.761,37.886-17.465,56.71l-26.22,84.814c-2.813,9.289-6.361,19.162-8.819,28.571
	c12.621,0.305,29.779,0.006,42.455,0.021c1.545-7.339,9.146-32.821,11.707-41.811l23.603-84.388
	c1.993-7.132,3.944-13.982,5.841-21.173c1.882-7.13,4.26-14.396,5.899-21.251c1.102,1.687,5.33,17.235,6.341,20.716
	c10.06,34.626,21.292,70.763,30.942,105.161c4.051,14.442,8.627,28.163,12.5,42.291c5.248,0.415,33.973,0.214,42.301,0.081
	c2.429-9.207,5.631-19.131,8.494-28.332c2.934-9.427,5.654-18.896,8.621-28.274c11.838-37.436,22.859-75.479,34.53-113.017
	c2.905-9.345,5.858-18.904,8.598-28.295c1.242-4.261,8.428-25.874,8.373-28.244l-38.688-0.01c-3.616-0.021-2.67,0.243-4.92,8.218
	c-1.02,3.609-2.014,7.099-2.997,10.679L515.43,954.111C511.418,968.188,507.208,982.594,503.522,996.569L503.522,996.569z
	 M333.875,1034.26c1.877-7.972,5.273-17.063,7.898-24.888c0.849-2.529,11.893-36.005,11.766-37.398l-25.29-90.271
	c-3.701-13.657-11.957-40.12-14.396-51.844l-43.821,0.035c0.723,3.593,2.73,9.168,3.958,12.919
	c9.492,28.977,18.367,60.074,27.661,89.475C303.119,936.93,332.787,1032.727,333.875,1034.26L333.875,1034.26z M681.503,1039.188
	c1.383,0.926,4.815,4.997,6.369,6.561c16.036,16.13,41.846,26.658,65.891,26.52c2.665-0.016,3.619,0.395,6.066,0.398
	c6.243,0.009,12.792-0.158,18.812-0.99c27.903-3.853,51.098-14.793,70.854-34.484c4.382-4.368,8.242-9.268,11.994-14.245
	c15.584-20.678,24.145-55.36,24.233-81.116c0.025-7.477-1.05-16.864-2.229-24.012c-2.581-15.627-9.271-34.432-17.568-48.222
	c-3.66-6.081-7.968-11.373-12.625-16.657c-0.714-0.811-0.761-1.083-1.519-1.903c-1.305-1.411-2.138-2.021-3.601-3.245
	c-3.546-2.965-6.965-6.308-10.831-8.943c-0.792-0.54-1.225-0.804-2.094-1.329c-10.152-6.131-17.074-10.201-28.726-13.867
	l-10.406-2.903c-5.686-1.303-16.535-3.619-22.579-3.66c-9.391-0.064-19.709-0.843-29.287-0.336c-1.813,0.097-0.863,0.097-2.677,0
	c-6.667-0.353-12.404,0.348-19.388,0.348c-8.715,0-61.147,0.46-65.734-0.055c-3.584-0.402-8.783-0.633-12.978-0.292
	c-5.804,0.472-42.801-0.033-52.106-0.033c-17.62,0-35.24,0-52.86,0c-1.14,2.377-3.738,13.444-4.409,16.126l-8.819,32.632
	c-1.421,5.536-2.906,10.857-4.484,16.432l-11.028,40.691c-0.851,3.008-1.364,5.406-2.222,8.425c-0.805,2.83-1.499,5.225-2.197,8.071
	l-2.587,8.062c-0.169-2.033-1.636-6.164-2.233-8.033c-6.072-18.984-11.115-38.308-17.3-57.237
	c-5.023-15.38-10.245-33.152-14.936-48.952l-3.724-12.248c-0.397-1.358-0.849-2.91-1.356-3.968h-60.466
	c-1.318,2.748-4.305,13.492-5.187,16.489l-10.356,32.997c-0.91,2.882-1.631,5.513-2.609,8.419c-0.991,2.942-1.726,5.341-2.626,8.402
	l-15.585,49.824c-0.974,2.899-1.72,5.459-2.667,8.36c-0.799,2.445-2.368,6.258-2.42,8.608c-1.286-0.942-0.834-1.617-1.387-3.557
	l-12.464-46.101c-0.838-2.95-1.521-5.349-2.271-8.377c-3.447-13.929-7.652-27.845-11.261-41.599l-6.763-25.181
	c-0.542-2.131-1.585-6.669-2.361-8.287h-74.536c1.237,5.31,8.071,23.831,8.366,27.381c-2.159-1.445-4.597-4.352-6.789-6.142
	c-7.508-6.13-15.656-10.191-24.882-13.907c-27.344-11.013-61.866-10.962-88.832-1.96c-15.53,5.185-29.489,12.384-42.318,22.712
	c-5.464,4.399-14.098,14.403-18.417,20.373c-11.372,15.718-19.099,36.186-21.95,56.008c-1.727,12-2.038,23.657-1.056,36.271
	c0.319,4.104,0.792,7.809,1.512,11.418c2.679,13.441,7.042,26.823,13.094,39.005c2.798,5.632,6.204,10.983,9.682,16.178
	c1.757,2.626,3.539,4.954,5.523,7.407l5.965,6.964c2.988,3.912,9.318,9.435,13.524,12.716l11.553,7.842
	c10.684,6.452,31.515,13.523,44.5,13.684c8.716,0.107,17.527-0.016,26.255-0.016c69.212,0,138.424,0,207.637,0l4.609-17.066
	c1.638-5.567,2.982-11.264,4.652-17.024c1.689-5.825,2.99-11.171,4.648-17.027l19.888-72.903c0.436-1.576,0.854-2.804,1.269-4.436
	c0.694-2.73,2.135-5.829,2.202-8.826c1.29,0.945,0.391-0.105,0.949,1.713c3.291,10.724,5.658,21.393,8.774,32.297l21.001,77.112
	c1.405,5.165,6.597,22.234,6.923,26.161h64.649c1.563-3.259,19.156-63.507,22.007-71.924c3.036-8.965,5.478-17.74,8.172-26.813
	c0.959-3.231,1.827-5.831,2.745-9.044c1.227-4.298,9.627-32.998,11.05-35.726c0.027-0.052,0.086-0.165,0.139-0.241
	c3.484,14.955,8.417,29.823,11.822,44.841c2.014,8.881,4.866,18.235,7.195,27.03l11.866,44.798
	c2.27,8.913,5.079,18.209,7.146,27.079h76.438c-0.602-1.254-0.85-2.428-1.302-4.022
	C689.095,1063.779,681.572,1042.317,681.503,1039.188z"/>
<path display="none" fill-rule="evenodd" clip-rule="evenodd" fill="#3B55A5" d="M503.522,996.569
	c-0.956-1.429-11.38-37.28-12.729-42.003c-7.93-27.733-17.144-56.983-25.397-84.877c-3.349-11.317-8.2-25.943-11.15-36.774
	c-0.982-3.607-0.607-2.876-4.338-2.876l-38.479-0.06c-1.54,3.497-3.156,9.704-4.393,13.854c-1.434,4.809-2.993,9.517-4.388,14.238
	c-2.78,9.411-5.661,18.767-8.698,28.177c-5.997,18.582-11.761,37.886-17.465,56.71l-26.22,84.814
	c-2.813,9.289-6.361,19.162-8.819,28.571c12.621,0.305,29.779,0.006,42.455,0.021c1.545-7.339,9.146-32.821,11.707-41.811
	l23.603-84.388c1.993-7.132,3.944-13.982,5.841-21.173c1.882-7.13,4.26-14.396,5.899-21.251c1.102,1.687,5.33,17.235,6.341,20.716
	c10.06,34.626,21.292,70.763,30.942,105.161c4.051,14.442,8.627,28.163,12.5,42.291c5.248,0.415,33.973,0.214,42.301,0.081
	c2.429-9.207,5.631-19.131,8.494-28.332c2.934-9.427,5.654-18.896,8.621-28.274c11.838-37.436,22.859-75.479,34.53-113.017
	c2.905-9.345,5.858-18.904,8.598-28.295c1.242-4.261,8.428-25.874,8.373-28.244l-38.688-0.01c-3.616-0.021-2.67,0.243-4.92,8.218
	c-1.02,3.609-2.014,7.099-2.997,10.679L515.43,954.111C511.418,968.188,507.208,982.594,503.522,996.569z"/>
<path display="none" fill-rule="evenodd" clip-rule="evenodd" fill="#EE2227" d="M727.53,830.694
	c2.471,7.376,5.109,14.589,7.799,21.946c5.534,15.14,3.802,13.45,8.917,13.37c2.393-0.037,4.834-0.012,7.229,0.006
	c22.188,0.168,33.026-1.216,49.113,9.973c10.172,7.075,20.98,18.618,25.945,33.385c7.695,22.895,8.164,52.173-3.002,74.476
	c-10.171,20.315-27.623,33.276-52.568,36.122c-20.035,2.285-34.24-1.034-47.595-10.476c-6.341-4.482-10.515-8.535-15.14-14.526
	c-6.085-7.884-6.629-11.049-10.302-18.885l-36.711-0.061c0.708,8.309,7.978,23.79,11.682,29.938
	c5.563,9.233,11.448,16.793,18.066,23.005c6.648,6.239,13.713,11.915,24.06,17.001c31.422,15.446,70.307,14.003,99.578-2.219
	c15.531-8.606,32.647-25.075,41.255-40.888c10.589-19.454,15.296-41.846,14.072-68.03c-0.541-11.566-2.944-24.614-6.271-34.823
	c-9.029-27.706-29.994-53.363-60.252-62.966c-11.571-3.673-21.69-5.85-34.802-6.202C755.575,830.49,740.462,830.122,727.53,830.694z
	"/>
<path display="none" fill-rule="evenodd" clip-rule="evenodd" fill="#EE2227" d="M213.003,1055.522
	c-0.219-1.981-11.695-32.866-13.013-35.21c-15.71-0.681-34.983,1.822-49.179-4.131c-25.137-10.542-39.97-37.064-42.1-64.286
	c-1.195-15.271,1.263-34.277,7.108-46.009c10.526-21.125,33.471-42.036,65.987-40.995c25.96,0.832,46.852,13.811,57.542,35.754
	c1.173,2.408,3.506,9.065,4.445,9.316l35.318-0.002c-0.688-12.401-11.225-32.236-19.147-42.101
	c-15.093-18.791-37.424-32.801-65.644-36.658c-28.856-3.943-64.278,7.771-85.687,25.294c-9.691,7.933-16.426,15.591-23.509,27.826
	C69.195,911.841,66,954.004,77.798,985.733c4.116,11.068,7.951,18.681,13.861,27.234c5.412,7.834,12.766,15.677,19.517,21.177
	c11.816,9.624,25.569,16.975,41.796,19.812C164.596,1055.988,200.854,1055.731,213.003,1055.522z"/>
<path display="none" fill-rule="evenodd" clip-rule="evenodd" fill="#3B55A5" d="M626.368,1055.933l42.846,0.102l-66.087-213.112
	c-1.238,1.603-15.477,50.483-18.023,58.413c-1.112,3.461-0.521,3.9,0.445,7.142l11.174,40.165
	c5.045,17.79,10.055,35.695,14.863,53.596C613.553,1009.56,625.268,1050.24,626.368,1055.933z"/>
<path display="none" fill-rule="evenodd" clip-rule="evenodd" fill="#3B55A5" d="M333.875,1034.26
	c1.877-7.972,5.273-17.063,7.898-24.888c0.849-2.529,11.893-36.005,11.766-37.398l-25.29-90.271
	c-3.701-13.657-11.957-40.12-14.396-51.844l-43.821,0.035c0.723,3.593,2.73,9.168,3.958,12.919
	c9.492,28.977,18.367,60.074,27.661,89.475C303.119,936.93,332.787,1032.727,333.875,1034.26z"/>
<path display="none" fill-rule="evenodd" clip-rule="evenodd" fill="#3B55A5" d="M649.559,938.543l104.395-0.008
	c-1.108-4.896-4.824-12.917-6.739-17.913c-1.172-3.055-2.294-5.935-3.374-8.796c-0.53-1.405-2.646-8.114-3.772-8.358l-101.641,0.007
	l7.962,26.329C646.97,931.674,648.339,937.623,649.559,938.543z"/>
<polygon display="none" fill-rule="evenodd" clip-rule="evenodd" fill="#3B55A5" points="200.557,980.92 301.653,981.035 
	290.466,946.044 187.896,946.103 "/>
<polygon display="none" fill-rule="evenodd" clip-rule="evenodd" fill="#3B55A5" points="227.906,1055.829 325.843,1055.873 
	314.553,1020.611 215.232,1020.615 "/>
<path display="none" fill-rule="evenodd" clip-rule="evenodd" fill="#3B55A5" d="M627.122,865.578l98.838-0.025
	c-0.695-2.772-2.143-5.945-3.212-8.7c-1.146-2.954-2.227-5.77-3.364-8.799l-6.832-17.534l-97.062-0.168l8.33,26.567
	C624.39,858.709,625.522,864.639,627.122,865.578z"/>
<path display="none" fill-rule="evenodd" clip-rule="evenodd" fill="#BFBFBF" d="M893.703,1014.09
	c1.218-1.402,1.024-0.891,1.141-2.282C893.929,1012.479,893.829,1012.569,893.703,1014.09z"/>
<polygon display="none" fill-rule="evenodd" clip-rule="evenodd" fill="#BFBFBF" points="846.928,1072.273 846.548,1072.273 
	846.864,1072.718 "/>
<polygon display="none" fill-rule="evenodd" clip-rule="evenodd" fill="#BFBFBF" points="893.703,1014.09 893.322,1014.09 
	893.64,1014.533 "/>
<polygon display="none" fill-rule="evenodd" clip-rule="evenodd" fill="#BFBFBF" points="847.688,1071.133 848.068,1071.133 
	847.751,1070.689 "/>
<path display="none" fill-rule="evenodd" clip-rule="evenodd" fill="#BFBFBF" d="M892.942,1015.23l0.113-0.113
	C893.048,1015.125,892.904,1015.192,892.942,1015.23z"/>
<path display="none" fill-rule="evenodd" clip-rule="evenodd" fill="#BFBFBF" d="M847.308,1071.894l0.381-0.761L847.308,1071.894z"
	/>
<path display="none" fill-rule="evenodd" clip-rule="evenodd" fill="#BFBFBF" d="M847.308,1071.894l-0.38,0.38L847.308,1071.894z"/>
<path fill-rule="evenodd" clip-rule="evenodd" fill="#BFBFBF" d="M705.672,718.772c-4.494-2.075-9.66-5.098-14.428-7.426
	c-4.72-2.303-10.456-4.691-15.388-6.665c-12.08-4.834-10.462-2.515-13.3-8.755c-1.949-4.287-5.566-11.121-6.821-15.361
	c3.874,0.805,11.977,5.141,15.161,7.012C682.577,694.44,699.016,707.274,705.672,718.772L705.672,718.772z M420.987,679.924
	c2.972-1.677,27.73-6.533,32.956-7.379c4.076-0.66,3.94,1.448,6.03,3.547l14.315,15.656c-5.864,0.306-13.064,1.919-18.705,3.046
	c-22.548,4.502-15.885,5.484-22.416-1.098l-8.394-9.244C423.519,682.853,421.813,681.499,420.987,679.924L420.987,679.924z
	 M480.929,666.872c18.028-3.465,44.475-7.012,63.564-6.135c0.837,2.095,13.29,18.037,14.916,21.379
	c-5.194,0.376-10.578,0.221-15.777,0.572c-10.292,0.696-19.639,2.018-29.716,3.135c-3.771,0.418-11.343,1.951-14.397,1.852
	C496.134,683.414,482.553,669.611,480.929,666.872L480.929,666.872z M630.1,689.919c-2.288-0.315-6.007-1.351-8.527-1.925
	c-9.701-2.212-16.286-3.125-26.457-4.149c-5.595-0.563-5.046-0.001-7.131-3.054l-12.069-18.292
	c4.952,0.438,41.102,5.068,43.823,7.489L630.1,689.919L630.1,689.919z M435.93,593.9c1.393-0.853,10.09-2.593,12.634-3.171
	c7.347-1.671,6.417-0.729,10.964,2.725c3.737,2.84,14.448,10.996,17.27,13.681l-19.934,3.73c-3.711,0.614-3.372,0.694-5.558-1.476
	L435.93,593.9L435.93,593.9z M476.589,586.104c0.446,0.573,0.076,0.167,0.616,0.661c0.068,0.063,0.676,0.552,0.849,0.678
	l18.726,13.606c3.663,2.665,2.718,3.049,8.482,2.231c6.671-0.947,13.993-1.714,20.729-2.387c7.553-0.754,14.868-0.63,22.394-1.118
	c-0.318-0.468-27.762-18.159-29.616-18.888c-3.731-1.465-18.189-0.079-22.291,0.734C489.326,583.038,483.31,584.325,476.589,586.104
	L476.589,586.104z M385.188,586.181l-0.717,0.423L385.188,586.181L385.188,586.181z M648.712,614.004
	c-4.362-1.532-8.767-3.31-13.572-4.649c-22.248-6.207-16.714,0.121-23.944-12.429c-2.008-3.485-5.137-8.005-6.601-11.584
	c3.896,0.558,10.514,2.976,14.099,4.448C628.22,593.701,644.586,605.82,648.712,614.004L648.712,614.004z M385.188,586.181
	c0.584-0.873,0.978-1.155,1.907-1.77c1.087-0.718,1.291-0.968,2.292-1.752l64.704-48.523c1.601-1.2,3.091-2.441,4.622-3.466
	c5.104,3.418,40.462,29.45,41.173,30.513c-14.587,1.213-33.223,5.445-47.501,9.111l-52.27,13.167
	C396.371,584.263,388.524,586.181,385.188,586.181L385.188,586.181z M391.07,351.813c-48.394-0.108-97.283,0.301-145.646,0.631
	c0.41,0.951,0.561,0.911,1.587,1.717l14.151,10.479c5.538,3.841,10.697,7.876,16.368,11.937
	c10.929,7.826,21.676,15.988,32.476,23.775l65.287,47.565c-0.238,3.048-9.129,29.296-10.802,34.487
	c-2.539,7.878-32.454,100.25-32.753,103.879c4.869,1.266,17.071,5.43,21.871,2.139l104.348-78.993
	c1.959,0.595,62.061,44.767,64.053,46.173l55.933,40.38c1.87,1.343,6.686,5.136,8.487,5.756c-0.364-2.778-1.967-7.073-2.872-9.896
	l-41.723-133.255c-0.896-2.812-2.434-6.706-2.941-9.547c5.859-3.914,25.836-19.578,31.723-24.099l79.655-60.039
	c1.445-1.085,14.849-10.618,15.435-12.507l-159.66-0.365c-8.326-25.526-16.17-51.094-24.779-76.626
	c-4.313-12.791-8.058-25.696-12.405-38.324l-13.165-37.998l-6.614,20.488c-10.884,33.989-22.542,68.565-33.27,102.762l-8.298,25.532
	C405.896,352.94,407.905,351.851,391.07,351.813L391.07,351.813z M287.518,563.755c-0.701,12.621,14.113,23.855,22.377,28.238
	c11.409,6.051,24.94,9.914,39.699,10.975c17.084,1.227,30.903,0.579,47.637-1.483c3.821-0.471,7.57-1.122,11.317-1.536
	c1.885-0.207,2.504,1.153,3.627,2.256l9.55,9.198c1.627,1.729,5.151,4.132,6.303,6.026l-20.889,5.414
	c-7.265,1.674-14.719,2.869-21.978,4.457c-15.992,3.5-32.087,3.363-48.862,2.383c-23.383-1.367-53.288-13.361-64.461-34.557
	c-0.712-1.353-1.363-3.457-2.083-4.27l-6.323,9.956c-0.772,1.171-1.795,1.948-1.264,3.941c1.49,5.585,9.978,14.825,14.291,18.837
	c1.007,0.938,2.011,1.508,3.106,2.408c4.108,3.375,9.01,6.162,13.87,8.188c1.467,0.611,2.65,0.967,3.892,1.623
	c-1.917,3.994-3.58,10.788-5.012,15.207c-0.621,1.916-1.169,3.51-1.605,5.38c2.234-0.597,5.271-3.494,7.195-4.937l10.346-7.668
	c7.772-5.834,2.715-2.669,13.373-1.768c2.285,0.194,2.837,0.696,5.111,0.771c2.655,0.086,3.136,0.695,5.501,0.748l11.409,0.723
	c2.75,0.148,9.481,0.221,11.978-0.157c4.543-0.688,11.35-0.063,17.209-1.172c1.886-0.357,3.833-0.188,5.604-0.646l10.742-1.389
	c1.27-0.142,3.457-0.738,4.786-1.097l22.938-4.633c1.279-0.191,1.967-0.158,2.93-0.379l58.288-11.561
	c0.848-0.197,1.688-0.248,2.864-0.444c1.797-0.299,3.79-0.629,5.411-0.839c1.049-0.135,1.636-0.117,2.614-0.326
	c1.439-0.307,1.222-0.364,2.787-0.521c3.407-0.344,7.146-1.326,10.396-1.736l22.3-1.963c3.714-0.281,7.737-0.277,11.633-0.865
	c5.663-0.855,12.001-0.027,17.813-0.201c2.105-0.063,3.27-0.621,5.814-0.326l11.449,0.685c6.74,0.092,8.251,2.317,12.712,5.669
	l22.584,17.119c0.858,0.607,1.217,0.628,1.836,1.473c-1.711-0.143-4.107-0.74-5.614-1.003l-23.896-3.308
	c-6.365-0.789-13-0.795-19.438-1.518c-4.11-0.461-28.852-0.248-33.612,0.469l-19.259,1.696c-1.662,0.111-4.438,0.398-5.95,0.667
	c-2.062,0.365-4.187,0.402-6.16,0.824l-12.32,1.648c-10.414,1.608-18.572,3.271-28.679,5.511c-1.243,0.275-1.579,0.387-2.654,0.654
	c-1.117,0.278-2.003,0.368-3.029,0.646c-1.794,0.487-3.641,0.817-5.699,1.286c-4.474,1.018-9.738,1.807-13.924,2.986l-19.609,4.654
	c-2.226,0.501-3.479,0.94-5.524,1.461l-14.367,2.91c-0.735,0.141-1.946,0.176-2.932,0.377c-9.681,1.977-19.614,3.848-29.552,5.004
	c-2.03,0.236-4.253,0.304-6.374,0.611c-11.105,1.607-33.737,0.612-45.398-1.713c-10.083-2.012-21.579-5.65-30.18-11.362
	c-2.727-1.812-5.389-3.532-7.969-5.632c-7.041-5.73-9.804-8.373-13.929-13.643l-3.942-6.352c-0.645-1.366-0.413-1.599-1.727-1.949
	c-0.982,3.679-7.763,10.936-8.836,14.705c3.448,11.408,21.247,24.432,30.654,30.011c4.344,2.576,16.707,7.709,21.053,9.055
	c8.533,2.642,15.463,4.048,24.905,5.712c8.814,1.553,19.308,1.44,28.541,1.647c10.466,0.233,30.976-1.972,41.652-4.085
	c2.872-0.568,2.442,0.368,4.488,2.32c1.538,1.469,2.509,2.414,3.828,3.893l11.059,11.738c1.319,1.212,2.901,2.777,3.611,3.967
	c-8.313,1.516-16.787,4.068-25.089,5.799c-4.437,0.924-8.608,1.592-13.062,2.337c-4.327,0.726-9.053,1.807-13.613,2.224
	c-9.362,0.855-18.808,1.831-28.416,2.39c-9.518,0.553-20.934,0.11-30.124-0.839c-16.329-1.684-35.458-7.209-47.943-14.176
	c-7.193-4.015-13.279-8.002-18.092-13.153c-0.697-0.746-1.035-0.931-1.913-1.761c-0.817-0.773-1.156-1.355-1.839-2.211
	c-7.175-8.995-7.117-12.602-8.803-14.812c-1.755,1.571-3.129,4.624-4.485,6.632c-5.122,7.587-5.475,5.985-1.157,14.539
	c6.021,11.93,17.74,20.544,29.014,27.232c11.871,7.043,26.793,12.582,40.645,14.867c13.568,2.239,27.317,3.668,41.129,3.73
	c2.36,0.011,3.178-0.326,5.13-0.385c4.553-0.137,11.843,0.038,15.976-0.566c3.441-0.504,7.071-0.598,10.471-0.926
	c13.174-1.271,26.553-3.451,38.781-6.069c6.28-1.345,12.039-2.964,18.585-3.84c5.712-0.765,31.65-6.302,37.303-7.546
	c13.176-2.901,38.226-6.688,52.509-8.517c1.757-0.225,3.998-0.247,5.473-0.409c1.752-0.191,3.703-0.211,5.147-0.367
	c5.425-0.584,10.729-0.152,15.966-0.945c1.913-0.289,3.371-0.074,5.282-0.231c1.771-0.146,2.854-0.358,5.174-0.341
	c2.358,0.019,2.992-0.363,5.124-0.39l16.926,0.015c22.134,0,49.087,3.592,70.493,8.178c20.303,4.348,40.056,10.91,59.229,18.705
	c6.465,2.629,12.698,6.044,19.063,8.878c1.559,0.694,2.374,1.228,3.9,1.981c6.203,3.061,12.17,6.25,18.047,9.893l11.743,7.372
	c0.062,0.047,0.149,0.11,0.211,0.157l2.838,1.941c0.092,0.059,0.355,0.229,0.447,0.287c2.119,1.381,6.211,5.305,8.5,5.838
	c-0.349-0.727-0.814-2.434-1.101-3.311c-0.392-1.195-0.702-2.022-1.161-3.251c-0.787-2.105-1.514-4.511-2.407-6.783
	c-5.616-14.28-11.446-26.562-19.435-39.753c-0.654-1.081-1.085-1.77-1.63-2.78l-7.059-11.323c-1.271-1.908-2.361-3.578-3.756-5.435
	c-0.772-1.026-1.125-1.364-1.905-2.506c-13.787-20.163-53.762-38.666-77.436-46.085c-25.851-8.102-19.935-2.512-23.803-12.96
	l-3.316-10.286c-0.398-1.319-0.755-2.197-1.101-3.679c10.38,2.419,20.139,4.889,29.97,8.264l16.824,6.335
	c2.035,0.811,3.482,1.555,5.409,2.313c6.202,2.439,12.181,5.796,18.018,8.818l9.852,5.588c1.868,1.215,5.529,3.9,7.422,4.342
	c-0.339-1.453-1.229-3.178-1.842-4.406c-0.719-1.443-1.284-3.026-1.938-4.68c-3.554-8.975-8.794-17.052-13.706-25.262
	c-1.656-2.768-3.26-5.227-5.012-7.855c-1.745-2.617-3.195-5.238-5.184-7.683c-2.002-2.459-3.646-4.727-5.616-7.251l-5.938-7.296
	c-8.594-8.927-18.271-16.737-29.508-22.325c-5.929-2.948-11.753-5.314-18.243-7.492c-3.426-1.148-6.662-1.834-10.103-2.764
	c-1.632-0.441-3.79-0.857-5.477-1.141c-1.857-0.313-3.667-0.949-5.514-1.104c-0.272-3.27-6.813-22.102-7.949-25.504
	c-1.447-4.336-2.81-8.717-4.095-12.816c-6.003-19.154-12.634-38.25-18.261-57.469c-0.672-2.295-1.538-4.229-2.046-6.409
	c1.49-2.226,21.31-16.256,25.051-19.063l70.478-53.043c0.88-0.66,1.63-1.176,2.511-1.9l7.521-5.714
	c6.742-5.036,18.807-13.914,25.028-19.086c6.43-5.345,13.543-9.98,20.021-15.271l7.465-5.769c1.275-0.906,1.653-0.829,2.575-2.205
	c-18.408,0-32.563-0.368-49.629-0.368l-150.357-0.368c-1.86-3.877-6.366-19.279-7.858-23.757c-1.372-4.113-2.605-7.814-3.952-11.855
	l-27.436-83.587c-2.592-7.845-4.975-16.124-7.81-23.806l-3.906-11.902c-0.711-2.118-1.168-3.724-1.845-5.875l-9.058-26.969
	c-0.417-1.093-0.737-1.921-0.999-3.045h-0.735c-0.479,2.058-1.259,3.742-1.929,5.791c-0.601,1.835-1.378,4.203-2.058,6.03
	c-5.552,14.928-10.518,32.247-15.636,47.595l-2.897,8.867c-0.385,1.134-0.695,2.004-1.005,3.038l-7.821,24.162
	c-2.716,8.067-4.98,15.843-7.716,23.899c-5.412,15.938-10.247,32.049-15.575,48.024c-1.365,4.091-2.513,7.906-3.862,11.946
	c-0.657,1.969-1.297,3.913-2.021,6.067c-0.419,1.248-0.566,1.815-0.961,3.083c-0.179,0.574-0.736,2.448-1.015,3.029
	c-33.685,0-66.491-0.368-100.36-0.368c-33.736,0-66.752,0.368-100.729,0.368c1.269,1.732,17.285,13.198,20.146,15.145l61.101,45.142
	c1.003,0.702,1.551,1.136,2.516,1.896c0.858,0.675,1.679,1.158,2.576,1.835c1.753,1.323,3.229,2.423,5.041,3.781
	c3.493,2.619,6.708,4.925,10.135,7.512l5.042,3.781c7.543,5.635,15.394,11.092,22.791,16.912c0.858,0.676,1.679,1.158,2.576,1.835
	l25.471,18.644c0.875,0.657,1.68,1.294,2.522,1.889c0.786,0.555,2.016,1.594,2.939,1.84c-0.944,4.052-4.881,15.278-6.425,20.044
	l-19.723,61.153c-1.459,4.371-3.018,9.19-4.362,13.651c-1.27,4.213-2.521,9.653-4.414,13.6c-6.828-3.613-18.827-7.795-27.006-4.582
	C291.079,559.382,287.727,561.165,287.518,563.755z"/>
<path fill-rule="evenodd" clip-rule="evenodd" fill="#3B55A4" d="M391.07,351.813c-48.394-0.108-97.283,0.301-145.646,0.631
	c0.41,0.951,0.561,0.911,1.587,1.717l14.151,10.479c5.538,3.841,10.697,7.876,16.368,11.937
	c10.929,7.826,21.676,15.988,32.476,23.775l65.287,47.565c-0.238,3.048-9.129,29.296-10.802,34.487
	c-2.539,7.878-32.454,100.25-32.753,103.879c4.869,1.266,17.071,5.43,21.871,2.139l104.348-78.993
	c1.959,0.595,62.061,44.767,64.053,46.173l55.933,40.38c1.87,1.343,6.686,5.136,8.487,5.756c-0.364-2.778-1.967-7.073-2.872-9.896
	l-41.723-133.255c-0.896-2.812-2.434-6.706-2.941-9.547c5.859-3.914,25.836-19.578,31.723-24.099l79.655-60.039
	c1.445-1.085,14.849-10.618,15.435-12.507l-159.66-0.365c-8.326-25.526-16.17-51.094-24.779-76.626
	c-4.313-12.791-8.058-25.696-12.405-38.324l-13.165-37.998l-6.614,20.488c-10.884,33.989-22.542,68.565-33.27,102.762l-8.298,25.532
	C405.896,352.94,407.905,351.851,391.07,351.813z"/>
<path fill-rule="evenodd" clip-rule="evenodd" fill="#ED2227" d="M218.655,670.645c1.686,2.21,1.628,5.816,8.803,14.812
	c0.683,0.855,1.022,1.438,1.839,2.211c0.878,0.83,1.215,1.015,1.913,1.761c4.813,5.151,10.899,9.139,18.092,13.153
	c12.486,6.967,31.614,12.492,47.943,14.176c9.189,0.949,20.605,1.392,30.124,0.839c9.607-0.559,19.053-1.534,28.416-2.39
	c4.561-0.417,9.286-1.498,13.613-2.224c4.454-0.745,8.625-1.413,13.062-2.337c8.302-1.73,16.775-4.283,25.089-5.799
	c-0.71-1.189-2.292-2.755-3.611-3.967l-11.059-11.738c-1.319-1.479-2.29-2.424-3.828-3.893c-2.046-1.952-1.616-2.889-4.488-2.32
	c-10.676,2.113-31.186,4.318-41.652,4.085c-9.233-0.207-19.727-0.095-28.541-1.647c-9.441-1.664-16.372-3.07-24.905-5.712
	c-4.346-1.346-16.709-6.479-21.053-9.055c-9.407-5.579-27.206-18.603-30.654-30.011c-1.73,2.053-3.226,5.042-4.762,7.355
	c-1.675,2.523-3.185,4.951-4.93,7.569C226.819,657.384,219.159,668.733,218.655,670.645z"/>
<path fill-rule="evenodd" clip-rule="evenodd" fill="#ED2227" d="M269.755,590.856c0.72,0.813,1.371,2.917,2.083,4.27
	c11.174,21.195,41.079,33.189,64.461,34.557c16.774,0.98,32.87,1.117,48.862-2.383c7.259-1.588,14.713-2.783,21.978-4.457
	l20.889-5.414c-1.152-1.895-4.676-4.298-6.303-6.026l-9.55-9.198c-1.123-1.103-1.742-2.463-3.627-2.256
	c-3.747,0.414-7.496,1.065-11.317,1.536c-16.733,2.063-30.552,2.71-47.637,1.483c-14.759-1.061-28.29-4.924-39.699-10.975
	c-8.264-4.383-23.078-15.617-22.377-28.238c-1.207,0.729-7.909,11.539-9.057,13.485L269.755,590.856z"/>
<path fill-rule="evenodd" clip-rule="evenodd" fill="#ED2227" d="M480.929,666.872c1.624,2.739,15.205,16.542,18.59,20.803
	c3.055,0.1,10.627-1.434,14.397-1.852c10.077-1.117,19.424-2.438,29.716-3.135c5.199-0.352,10.583-0.196,15.777-0.572
	c-1.626-3.342-14.079-19.284-14.916-21.379C525.403,659.86,498.957,663.407,480.929,666.872z"/>
<path fill-rule="evenodd" clip-rule="evenodd" fill="#ED2227" d="M476.589,586.104c0.446,0.573,0.076,0.167,0.616,0.661
	c0.068,0.063,0.676,0.552,0.849,0.678l18.726,13.606c3.663,2.665,2.718,3.049,8.482,2.231c6.671-0.947,13.993-1.714,20.729-2.387
	c7.553-0.754,14.868-0.63,22.394-1.118c-0.318-0.468-27.762-18.159-29.616-18.888c-3.731-1.465-18.189-0.079-22.291,0.734
	C489.326,583.038,483.31,584.325,476.589,586.104z"/>
<path fill-rule="evenodd" clip-rule="evenodd" fill="#ED2227" d="M420.987,679.924c0.826,1.575,2.532,2.929,3.787,4.528l8.394,9.244
	c6.531,6.582-0.132,5.6,22.416,1.098c5.641-1.127,12.84-2.74,18.705-3.046l-14.315-15.656c-2.09-2.099-1.954-4.207-6.03-3.547
	C448.717,673.391,423.958,678.247,420.987,679.924z"/>
<path fill-rule="evenodd" clip-rule="evenodd" fill="#ED2227" d="M630.1,689.919l-10.361-19.931
	c-2.722-2.421-38.871-7.052-43.823-7.489l12.069,18.292c2.085,3.053,1.536,2.49,7.131,3.054c10.171,1.024,16.756,1.938,26.457,4.149
	C624.093,688.568,627.812,689.604,630.1,689.919z"/>
<path fill-rule="evenodd" clip-rule="evenodd" fill="#ED2227" d="M705.672,718.772c-6.656-11.498-23.095-24.332-34.775-31.195
	c-3.185-1.871-11.287-6.207-15.161-7.012c1.255,4.24,4.872,11.074,6.821,15.361c2.838,6.24,1.22,3.921,13.3,8.755
	c4.932,1.974,10.668,4.362,15.388,6.665C696.012,713.675,701.178,716.697,705.672,718.772z"/>
<path fill-rule="evenodd" clip-rule="evenodd" fill="#ED2227" d="M435.93,593.9l15.376,15.489c2.187,2.17,1.847,2.09,5.558,1.476
	l19.934-3.73c-2.821-2.685-13.532-10.841-17.27-13.681c-4.548-3.453-3.617-4.396-10.964-2.725
	C446.02,591.308,437.323,593.048,435.93,593.9z"/>
<path fill-rule="evenodd" clip-rule="evenodd" fill="#ED2227" d="M648.712,614.004c-4.126-8.184-20.492-20.303-30.019-24.214
	c-3.585-1.473-10.202-3.891-14.099-4.448c1.464,3.579,4.593,8.099,6.601,11.584c7.23,12.55,1.696,6.222,23.944,12.429
	C639.945,610.694,644.35,612.472,648.712,614.004z"/>
</svg>
